<svg xmlns="http://www.w3.org/2000/svg" width="1200" height="330" viewBox="0 0 1200 330" role="img" aria-labelledby="title desc">
  <title id="title">Projeyi çalıştırma akışı</title>
  <desc id="desc">Kurulum, veri yolu, test ve analiz adımları.</desc>
  <rect width="1200" height="330" rx="26" fill="#101827"/>
  <circle cx="48" cy="42" r="8" fill="#fb7185"/><circle cx="74" cy="42" r="8" fill="#fbbf24"/><circle cx="100" cy="42" r="8" fill="#34d399"/>
  <text x="135" y="49" fill="#94a3b8" font-family="Consolas, monospace" font-size="17">uwb-afet-calismasi / başlangıç</text>
  <line x1="36" y1="74" x2="1164" y2="74" stroke="#334155"/>
  <g font-family="Arial, sans-serif">
    <g transform="translate(55 112)">
      <rect width="235" height="155" rx="18" fill="#1e293b"/>
      <text x="25" y="38" fill="#5eead4" font-size="16" font-weight="700">01  ORTAM</text>
      <text x="25" y="79" fill="#f8fafc" font-size="21" font-weight="700">Python'u hazırla</text>
      <text x="25" y="111" fill="#94a3b8" font-size="15">Paketleri bir kez kur</text>
    </g>
    <g transform="translate(340 112)">
      <rect width="235" height="155" rx="18" fill="#1e293b"/>
      <text x="25" y="38" fill="#fbbf24" font-size="16" font-weight="700">02  VERİ</text>
      <text x="25" y="79" fill="#f8fafc" font-size="21" font-weight="700">Klasörü göster</text>
      <text x="25" y="111" fill="#94a3b8" font-size="15">Rescuer yolunu tanımla</text>
    </g>
    <g transform="translate(625 112)">
      <rect width="235" height="155" rx="18" fill="#1e293b"/>
      <text x="25" y="38" fill="#60a5fa" font-size="16" font-weight="700">03  KONTROL</text>
      <text x="25" y="79" fill="#f8fafc" font-size="21" font-weight="700">Testleri çalıştır</text>
      <text x="25" y="111" fill="#94a3b8" font-size="15">Temel işlevleri doğrula</text>
    </g>
    <g transform="translate(910 112)">
      <rect width="235" height="155" rx="18" fill="#0f766e"/>
      <text x="25" y="38" fill="#ccfbf1" font-size="16" font-weight="700">04  SONUÇ</text>
      <text x="25" y="79" fill="#ffffff" font-size="21" font-weight="700">Modeli çalıştır</text>
      <text x="25" y="111" fill="#ccfbf1" font-size="15">Rapor ve görselleri üret</text>
    </g>
  </g>
</svg>
